<svg width="790" height="700" viewBox="0 0 790 700" xmlns="http://www.w3.org/2000/svg">
<path d="M419.829 353.704C419.829 334.998 404.67 319.833 385.972 319.833C367.273 319.833 352.114 334.998 352.114 353.704H419.829ZM385.972 666.129H352.114C352.114 677.374 357.694 687.888 367.007 694.187C376.32 700.487 388.152 701.752 398.584 697.561L385.972 666.129ZM645.272 561.987L657.885 593.419C670.719 588.267 679.129 575.82 679.129 561.987H645.272ZM679.129 345.485C679.129 326.779 663.97 311.614 645.272 311.614C626.574 311.614 611.415 326.779 611.415 345.485H679.129ZM406.53 326.792C391.673 315.434 370.424 318.275 359.071 333.138C347.718 348 350.557 369.258 365.413 380.616L406.53 326.792ZM478.424 424.381L457.866 451.293C467.933 458.988 481.449 460.42 492.901 455L478.424 424.381ZM659.614 376.104C676.515 368.101 683.738 347.91 675.743 331.002C667.744 314.093 647.561 306.867 630.659 314.865L659.614 376.104ZM373.359 322.272C356.006 329.24 347.587 348.962 354.552 366.322C361.518 383.682 381.232 392.105 398.584 385.136L373.359 322.272ZM657.885 280.995C675.238 274.026 683.657 254.303 676.691 236.943C669.726 219.584 650.012 211.161 632.659 218.13L657.885 280.995ZM632.663 280.995C650.016 287.963 669.73 279.536 676.691 262.176C683.657 244.816 675.233 225.095 657.88 218.128L632.663 280.995ZM398.58 114.032C381.227 107.065 361.513 115.491 354.552 132.852C347.587 150.212 356.01 169.934 373.363 176.9L398.58 114.032ZM661.862 220.082C645.565 210.915 624.921 216.703 615.757 233.009C606.593 249.316 612.381 269.966 628.682 279.134L661.862 220.082ZM737.86 301.678L752.319 332.307C763.772 326.896 771.247 315.543 771.694 302.88C772.146 290.216 765.492 278.362 754.45 272.152L737.86 301.678ZM630.659 314.865C613.753 322.854 606.535 343.032 614.521 359.95C622.506 376.863 642.703 384.093 659.614 376.104L630.659 314.865ZM620.032 226.834C607.487 240.704 608.553 262.122 622.416 274.677C636.279 287.227 657.691 286.161 670.24 272.292L620.032 226.834ZM756.142 126.86L781.246 149.588C788.912 141.112 791.792 129.338 788.894 118.279C786 107.22 777.725 98.3683 766.887 94.74L756.142 126.86ZM478.424 33.8727L489.168 1.75324C475.923 -2.68249 461.31 1.47774 452.381 12.2275L478.424 33.8727ZM359.703 123.821C347.754 138.209 349.726 159.564 364.109 171.518C378.491 183.473 399.839 181.5 411.789 167.111L359.703 123.821ZM113.836 218.128C96.483 225.095 88.0602 244.816 95.0239 262.176C101.988 279.536 121.701 287.963 139.055 280.995L113.836 218.128ZM398.354 176.9C415.707 169.934 424.131 150.212 417.165 132.852C410.204 115.491 390.49 107.065 373.137 114.032L398.354 176.9ZM143.037 279.089C159.337 269.921 165.122 249.271 155.959 232.964C146.796 216.658 126.154 210.87 109.854 220.037L143.037 279.089ZM33.8577 301.633L17.2664 272.107C6.23123 278.312 -0.421476 290.162 0.0213744 302.816C0.464225 315.475 7.92814 326.829 19.3705 332.248L33.8577 301.633ZM111.958 376.099C128.858 384.102 149.045 376.885 157.047 359.977C165.048 343.069 157.833 322.877 140.933 314.87L111.958 376.099ZM139.059 218.13C121.707 211.161 101.992 219.584 95.0258 236.943C88.0593 254.303 96.4794 274.026 113.832 280.995L139.059 218.13ZM373.133 385.136C390.486 392.105 410.2 383.682 417.165 366.322C424.131 348.962 415.712 329.24 398.359 322.272L373.133 385.136ZM101.152 272.08C113.582 286.053 134.983 287.299 148.952 274.866C162.921 262.433 164.169 241.022 151.739 227.047L101.152 272.08ZM33.8577 145.466L20.4783 114.352C10.4855 118.652 3.16693 127.494 0.80686 138.117C-1.55321 148.741 1.33277 159.852 8.5642 167.981L33.8577 145.466ZM293.158 33.8727L319.21 12.2401C309.622 0.682903 293.569 -3.17657 279.779 2.75896L293.158 33.8727ZM359.694 167.099C371.634 181.493 392.982 183.476 407.369 171.528C421.756 159.581 423.743 138.227 411.798 123.833L359.694 167.099ZM419.603 353.749C419.603 335.043 404.444 319.878 385.746 319.878C367.048 319.878 351.889 335.043 351.889 353.749H419.603ZM385.746 666.129L373.133 697.561C383.565 701.752 395.397 700.487 404.71 694.187C414.023 687.888 419.603 677.374 419.603 666.129H385.746ZM126.446 561.987H92.5885C92.5885 575.82 100.999 588.267 113.832 593.419L126.446 561.987ZM160.303 345.485C160.303 326.779 145.144 311.614 126.446 311.614C107.747 311.614 92.5885 326.779 92.5885 345.485H160.303ZM406.286 380.629C421.151 369.285 424.004 348.027 412.66 333.156C401.32 318.284 380.071 315.43 365.206 326.779L406.286 380.629ZM293.158 424.381L278.68 455C290.124 460.415 303.631 458.993 313.698 451.306L293.158 424.381ZM140.933 314.87C124.03 306.872 103.836 314.093 95.8401 331.002C87.844 347.91 95.0556 368.097 111.958 376.099L140.933 314.87ZM352.114 353.704V666.129H419.829V353.704H352.114ZM398.584 697.561L657.885 593.419L632.659 530.555L373.359 634.697L398.584 697.561ZM679.129 561.987V345.485H611.415V561.987H679.129ZM365.413 380.616L457.866 451.293L498.982 397.47L406.53 326.792L365.413 380.616ZM492.901 455L659.614 376.104L630.659 314.865L463.947 393.762L492.901 455ZM398.584 385.136L657.885 280.995L632.659 218.13L373.359 322.272L398.584 385.136ZM657.88 218.128L398.58 114.032L373.363 176.9L632.663 280.995L657.88 218.128ZM628.682 279.134L721.27 331.205L754.45 272.152L661.862 220.082L628.682 279.134ZM723.4 271.05L630.659 314.865L659.614 376.104L752.319 332.307L723.4 271.05ZM670.24 272.292L781.246 149.588L731.039 104.131L620.032 226.834L670.24 272.292ZM766.887 94.74L489.168 1.75324L467.68 65.9922L745.398 158.979L766.887 94.74ZM452.381 12.2275L359.703 123.821L411.789 167.111L504.467 55.518L452.381 12.2275ZM139.055 280.995L398.354 176.9L373.137 114.032L113.836 218.128L139.055 280.995ZM109.854 220.037L17.2664 272.107L50.449 331.16L143.037 279.089L109.854 220.037ZM19.3705 332.248L111.958 376.099L140.933 314.87L48.3449 271.018L19.3705 332.248ZM113.832 280.995L373.133 385.136L398.359 322.272L139.059 218.13L113.832 280.995ZM151.739 227.047L59.1512 122.95L8.5642 167.981L101.152 272.08L151.739 227.047ZM47.2371 176.58L306.538 64.9865L279.779 2.75896L20.4783 114.352L47.2371 176.58ZM267.106 55.5054L359.694 167.099L411.798 123.833L319.21 12.2401L267.106 55.5054ZM351.889 353.749V666.129H419.603V353.749H351.889ZM398.359 634.697L139.059 530.555L113.832 593.419L373.133 697.561L398.359 634.697ZM160.303 561.987V345.485H92.5885V561.987H160.303ZM365.206 326.779L272.62 397.456L313.698 451.306L406.286 380.629L365.206 326.779ZM307.635 393.762L140.933 314.87L111.958 376.099L278.68 455L307.635 393.762Z"/>
</svg>
